<?xml version="1.0" standalone="no"?>
<!DOCTYPE svg PUBLIC "-//W3C//DTD SVG 20010904//EN"
 "http://www.w3.org/TR/2001/REC-SVG-20010904/DTD/svg10.dtd">
<svg version="1.0" xmlns="http://www.w3.org/2000/svg"
 width="64.000000pt" height="64.000000pt" viewBox="0 0 64.000000 64.000000"
 preserveAspectRatio="xMidYMid meet">
<metadata>
Created by potrace 1.16, written by Peter Selinger 2001-2019
</metadata>
<g transform="translate(0.000000,64.000000) scale(0.100000,-0.100000)"
fill="#000000" stroke="none">
<path d="M201 618 c-5 -13 -12 -30 -14 -39 -3 -9 -43 -29 -96 -49 -50 -18 -91
-37 -91 -42 0 -16 21 -52 48 -80 21 -23 35 -28 70 -28 l45 0 -6 -147 c-7 -171
-11 -191 -41 -195 -37 -5 -25 -33 16 -36 42 -4 43 -2 58 108 13 100 13 267 0
291 -8 14 -21 19 -54 19 -32 0 -48 6 -66 25 l-23 24 29 12 c16 6 52 19 79 28
39 14 54 25 66 51 l16 33 21 -44 c12 -25 24 -59 28 -76 6 -28 3 -34 -20 -44
-26 -12 -32 -39 -11 -46 6 -1 25 6 43 17 39 24 42 54 12 134 -37 97 -88 136
-109 84z"/>
<path d="M334 385 c-4 -10 2 -28 15 -43 64 -81 123 -170 133 -204 10 -34 9
-42 -9 -66 -38 -50 -87 -36 -81 25 1 18 -2 37 -8 43 -17 17 -36 -15 -36 -60 1
-39 0 -40 -34 -40 -27 0 -34 -4 -34 -20 0 -18 7 -20 85 -20 107 0 140 14 156
70 21 69 -22 164 -127 282 -41 46 -53 53 -60 33z"/>
</g>
</svg>
