<?xml version="1.0" standalone="no"?>
<!DOCTYPE svg PUBLIC "-//W3C//DTD SVG 20010904//EN"
 "http://www.w3.org/TR/2001/REC-SVG-20010904/DTD/svg10.dtd">
<svg version="1.0" xmlns="http://www.w3.org/2000/svg"
 width="50.000000pt" height="50.000000pt" viewBox="0 0 50.000000 50.000000"
 preserveAspectRatio="xMidYMid meet">
<metadata>
Created by potrace 1.16, written by Peter Selinger 2001-2019
</metadata>
<g transform="translate(0.000000,50.000000) scale(0.100000,-0.100000)"
fill="#000000" stroke="none">
<path d="M286 444 c-23 -13 -50 -15 -130 -11 -56 3 -113 9 -129 12 -20 6 -27
4 -27 -8 0 -18 68 -37 137 -38 l48 0 -32 -16 c-44 -22 -50 -43 -18 -70 30 -26
79 -30 132 -11 33 12 34 11 93 -47 66 -65 74 -85 34 -85 -20 0 -25 -4 -22 -23
3 -19 -1 -22 -28 -19 -29 3 -31 1 -27 -23 6 -27 -13 -35 -35 -13 -12 12 -14 9
-16 -27 -1 -11 -8 -20 -16 -20 -15 0 -16 7 -5 37 9 24 -140 172 -163 162 -9
-4 -32 -9 -49 -12 -36 -5 -46 -32 -13 -32 11 0 20 -6 20 -14 0 -17 127 -146
143 -146 7 0 21 -7 31 -15 28 -21 64 -19 78 5 7 11 18 20 25 20 6 0 18 8 25
19 7 10 23 21 35 25 12 4 25 15 28 25 3 11 14 21 24 24 11 2 21 15 23 28 2 16
11 25 26 27 35 5 28 34 -8 30 -25 -2 -40 7 -94 61 l-65 64 -43 -16 c-48 -19
-86 -21 -107 -8 -11 7 11 22 82 57 90 45 99 47 130 36 59 -21 127 -14 127 14
0 13 -19 13 -67 -1 -6 -2 -19 3 -30 10 -24 19 -81 18 -117 -1z"/>
</g>
</svg>
