<?xml version="1.0" standalone="no"?>
<!DOCTYPE svg PUBLIC "-//W3C//DTD SVG 20010904//EN"
 "http://www.w3.org/TR/2001/REC-SVG-20010904/DTD/svg10.dtd">
<svg version="1.0" xmlns="http://www.w3.org/2000/svg"
 width="64.000000pt" height="64.000000pt" viewBox="0 0 64.000000 64.000000"
 preserveAspectRatio="xMidYMid meet">
<metadata>
Created by potrace 1.16, written by Peter Selinger 2001-2019
</metadata>
<g transform="translate(0.000000,64.000000) scale(0.100000,-0.100000)"
fill="#000000" stroke="none">
<path d="M177 452 c-132 -132 -137 -139 -119 -155 14 -13 21 -14 30 -5 9 9 12
-14 12 -100 l0 -112 90 0 90 0 0 90 0 90 40 0 40 0 0 -90 0 -90 90 0 90 0 0
111 c0 92 2 110 13 100 11 -8 18 -7 30 7 16 17 14 21 -33 67 -45 44 -50 54
-50 92 0 36 -3 43 -20 43 -14 0 -20 -7 -20 -22 0 -19 -11 -11 -68 45 -37 37
-70 67 -72 67 -3 0 -67 -62 -143 -138z m236 -20 l87 -87 0 -113 0 -112 -50 0
-50 0 0 90 0 90 -80 0 -80 0 0 -90 0 -90 -50 0 -50 0 0 112 0 113 87 87 c48
49 90 88 93 88 3 0 45 -39 93 -88z"/>
</g>
</svg>
