<?xml version="1.0" standalone="no"?>
<!DOCTYPE svg PUBLIC "-//W3C//DTD SVG 20010904//EN"
 "http://www.w3.org/TR/2001/REC-SVG-20010904/DTD/svg10.dtd">
<svg version="1.0" xmlns="http://www.w3.org/2000/svg"
 width="100.000000pt" height="100.000000pt" viewBox="0 0 100.000000 100.000000"
 preserveAspectRatio="xMidYMid meet">
<metadata>
Created by potrace 1.16, written by Peter Selinger 2001-2019
</metadata>
<g transform="translate(0.000000,100.000000) scale(0.100000,-0.100000)"
fill="#000000" stroke="none">
<path d="M355 943 c-122 -44 -223 -135 -278 -250 -31 -65 -32 -73 -32 -194 0
-124 0 -126 37 -200 47 -95 130 -177 225 -222 65 -31 73 -32 193 -32 120 0
128 1 193 32 95 45 178 127 225 222 37 74 37 76 37 200 0 121 -1 129 -32 194
-45 95 -127 178 -222 225 -71 35 -81 37 -185 40 -86 2 -122 -2 -161 -15z m317
-70 c88 -41 160 -113 201 -201 30 -62 32 -75 32 -172 0 -97 -2 -110 -31 -170
-17 -36 -40 -76 -51 -89 l-19 -24 -70 28 c-116 46 -124 52 -124 88 0 34 36
114 59 133 9 7 14 46 17 135 5 149 -4 172 -88 214 -45 23 -63 26 -120 23 -72
-4 -104 -20 -142 -72 -19 -24 -21 -42 -21 -158 0 -103 3 -132 15 -142 24 -18
60 -98 60 -133 0 -36 -8 -42 -124 -88 l-70 -28 -19 24 c-11 13 -34 53 -51 89
-29 60 -31 73 -31 170 0 97 2 110 31 171 52 109 113 165 233 216 48 20 70 23
151 21 83 -3 104 -7 162 -35z m-116 -97 c3 -8 18 -16 33 -19 47 -10 64 -83 40
-171 -8 -30 -8 -41 2 -47 10 -6 8 -14 -6 -36 -46 -68 -65 -119 -65 -170 0 -60
13 -77 80 -105 25 -11 62 -26 83 -35 l38 -16 -43 -27 c-66 -41 -141 -62 -221
-62 -77 1 -129 15 -208 59 -56 30 -56 30 42 68 92 36 109 54 109 118 0 51 -19
101 -65 170 -14 21 -15 31 -6 36 9 6 9 23 0 77 -11 64 -11 74 7 110 10 21 30
44 44 51 35 18 129 17 136 -1z"/>
</g>
</svg>
