<?xml version="1.0" standalone="no"?>
<!DOCTYPE svg PUBLIC "-//W3C//DTD SVG 20010904//EN"
 "http://www.w3.org/TR/2001/REC-SVG-20010904/DTD/svg10.dtd">
<svg version="1.0" xmlns="http://www.w3.org/2000/svg"
 width="512.000000pt" height="512.000000pt" viewBox="0 0 512.000000 512.000000"
 preserveAspectRatio="xMidYMid meet">

<g transform="translate(0.000000,512.000000) scale(0.100000,-0.100000)"
fill="#000000" stroke="none">
<path d="M2490 4897 c-48 -16 -116 -86 -129 -133 -8 -27 -11 -495 -11 -1504
l0 -1465 -468 467 c-352 352 -478 472 -512 487 -136 62 -288 -24 -298 -169 -8
-112 -39 -75 687 -804 707 -709 714 -716 807 -716 88 0 102 12 801 712 508
509 667 673 682 708 81 180 -99 360 -279 279 -34 -15 -160 -135 -517 -492
l-473 -471 -2 1479 -3 1480 -28 47 c-50 85 -162 127 -257 95z"/>
<path d="M330 1463 c-41 -21 -62 -40 -85 -77 l-30 -49 -3 -456 c-2 -306 0
-473 8 -507 13 -60 56 -116 113 -147 l42 -22 2190 0 2190 0 40 22 c50 27 80
58 100 105 13 32 15 107 15 516 l0 479 -23 44 c-13 24 -43 58 -66 74 -39 27
-50 30 -120 30 -69 0 -82 -3 -118 -28 -22 -15 -52 -50 -67 -76 l-26 -49 0
-346 0 -346 -1925 0 -1924 0 -3 358 -3 359 -28 41 c-39 60 -94 93 -164 99 -50
4 -66 1 -113 -24z"/>
</g>
</svg>
