<?xml version="1.0" standalone="no"?>
<!DOCTYPE svg PUBLIC "-//W3C//DTD SVG 20010904//EN"
 "http://www.w3.org/TR/2001/REC-SVG-20010904/DTD/svg10.dtd">
<svg version="1.0" xmlns="http://www.w3.org/2000/svg"
 width="100.000000pt" height="100.000000pt" viewBox="0 0 100.000000 100.000000"
 preserveAspectRatio="xMidYMid meet">

<g transform="translate(0.000000,100.000000) scale(0.100000,-0.100000)"
fill="#000000" stroke="none">
<path d="M131 906 c-49 -27 -50 -37 -51 -404 0 -372 2 -386 55 -410 41 -19
697 -17 734 2 49 26 51 41 51 406 0 365 -2 380 -51 406 -39 20 -702 20 -738 0z
m729 -46 c19 -19 20 -33 20 -356 0 -212 -4 -342 -10 -355 -13 -22 -40 -26 -40
-4 0 30 -59 80 -141 119 -77 38 -84 44 -87 73 -2 18 4 43 12 55 9 12 16 29 16
36 0 8 8 24 18 37 16 20 19 41 18 133 -1 117 -10 140 -61 164 -11 5 -31 15
-45 23 -56 33 -163 7 -203 -49 -19 -27 -22 -44 -23 -136 -1 -100 1 -107 33
-170 22 -41 33 -75 31 -95 -3 -27 -12 -34 -87 -71 -82 -39 -141 -89 -141 -119
0 -22 -27 -18 -40 4 -6 13 -10 143 -10 355 0 323 1 337 20 356 19 19 33 20
360 20 327 0 341 -1 360 -20z m-292 -125 c27 -14 53 -32 56 -41 9 -25 7 -100
-4 -130 -7 -18 -7 -30 0 -39 11 -13 3 -45 -11 -45 -5 0 -9 -6 -9 -13 0 -7 -9
-30 -20 -52 -22 -43 -26 -95 -9 -126 5 -11 53 -40 105 -65 70 -34 98 -53 109
-75 l16 -29 -301 0 -301 0 18 31 c13 22 43 42 110 74 50 24 97 53 102 64 17
31 13 87 -9 123 -11 18 -20 41 -20 50 0 9 -5 18 -12 20 -15 5 -21 178 -8 214
12 31 66 64 107 64 17 0 54 -11 81 -25z"/>
</g>
</svg>
